<!-- sample rectangle -->
<svg width="32" height="40" viewBox="0 0 32 40" fill="none" xmlns="http://www.w3.org/2000/svg">
<path d="M22.927 0.492065H15.8389V8.64684H22.927V0.492065Z" fill="#2A3647"/>
<path d="M15.8392 15.2791H22.9273V26.7801C22.9597 29.5476 22.1721 32.2622 20.6646 34.5789C19.1761 36.8298 16.3027 39.5079 10.9866 39.5079C5.19613 39.5079 1.8211 36.7696 0 35.269L4.47096 29.754C6.24844 31.2053 7.96049 32.3992 11.0138 32.3992C13.3256 32.3992 14.2471 31.4572 14.7869 30.6357C15.5207 29.4947 15.9003 28.1603 15.8774 26.802L15.8392 15.2791Z" fill="#2A3647"/>
<path d="M12.2239 10.1309H5.13574V17.2505H12.2239V10.1309Z" fill="#29ABE2"/>
<path d="M26.6409 36.1669C26.6409 37.6839 25.8721 38.4999 24.798 38.4999C23.7239 38.4999 23.0205 37.5306 23.0205 36.2435C23.0205 34.9565 23.7457 33.9379 24.858 33.9379C25.9703 33.9379 26.6409 34.9401 26.6409 36.1669ZM23.8438 36.2271C23.8438 37.1417 24.2091 37.8154 24.8362 37.8154C25.4632 37.8154 25.8176 37.1034 25.8176 36.1724C25.8176 35.3563 25.4904 34.5896 24.8362 34.5896C24.1819 34.5896 23.8438 35.3289 23.8438 36.2271Z" fill="#2A3647"/>
<path d="M28.0478 34.004V38.4292H27.2627V34.004H28.0478Z" fill="#2A3647"/>
<path d="M28.8975 38.4292V34.004H29.7698L30.7077 35.8278C30.9491 36.3046 31.1639 36.7946 31.351 37.2955C31.302 36.7478 31.2802 36.118 31.2802 35.417V34.004H31.9999V38.4292H31.1875L30.2387 36.5671C29.9876 36.078 29.7637 35.5752 29.5681 35.061C29.5681 35.6087 29.6063 36.2276 29.6063 36.9888V38.4237L28.8975 38.4292Z" fill="#2A3647"/>
</svg>
