<svg width="22" height="25" viewBox="0 0 22 25" fill="none" xmlns="http://www.w3.org/2000/svg">
<path d="M11.0002 19.6999C9.8802 19.6999 8.8102 19.8749 7.7902 20.2249C6.7702 20.5749 5.8402 21.0999 5.0002 21.7999V22.0999H17.0002V21.7999C16.1602 21.0999 15.2302 20.5749 14.2102 20.2249C13.1902 19.8749 12.1202 19.6999 11.0002 19.6999ZM2.6002 20.7199C3.6802 19.6599 4.9352 18.8249 6.3652 18.2149C7.7952 17.6049 9.3402 17.2999 11.0002 17.2999C12.6602 17.2999 14.2052 17.6049 15.6352 18.2149C17.0652 18.8249 18.3202 19.6599 19.4002 20.7199V5.29991H2.6002V20.7199ZM11.0002 14.8999C9.8402 14.8999 8.8502 14.4899 8.0302 13.6699C7.2102 12.8499 6.8002 11.8599 6.8002 10.6999C6.8002 9.53991 7.2102 8.54991 8.0302 7.72991C8.8502 6.90991 9.8402 6.49991 11.0002 6.49991C12.1602 6.49991 13.1502 6.90991 13.9702 7.72991C14.7902 8.54991 15.2002 9.53991 15.2002 10.6999C15.2002 11.8599 14.7902 12.8499 13.9702 13.6699C13.1502 14.4899 12.1602 14.8999 11.0002 14.8999ZM11.0002 12.4999C11.5002 12.4999 11.9252 12.3249 12.2752 11.9749C12.6252 11.6249 12.8002 11.1999 12.8002 10.6999C12.8002 10.1999 12.6252 9.77491 12.2752 9.42491C11.9252 9.07491 11.5002 8.89991 11.0002 8.89991C10.5002 8.89991 10.0752 9.07491 9.7252 9.42491C9.3752 9.77491 9.2002 10.1999 9.2002 10.6999C9.2002 11.1999 9.3752 11.6249 9.7252 11.9749C10.0752 12.3249 10.5002 12.4999 11.0002 12.4999ZM2.6002 24.4999C1.9402 24.4999 1.3752 24.2649 0.905195 23.7949C0.435195 23.3249 0.200195 22.7599 0.200195 22.0999V5.29991C0.200195 4.63991 0.435195 4.07491 0.905195 3.60491C1.3752 3.13491 1.9402 2.89991 2.6002 2.89991H3.8002V1.69991C3.8002 1.03717 4.33745 0.499908 5.0002 0.499908C5.66294 0.499908 6.2002 1.03717 6.2002 1.69991V2.89991H15.8002V1.69991C15.8002 1.03717 16.3375 0.499908 17.0002 0.499908C17.6629 0.499908 18.2002 1.03717 18.2002 1.69991V2.89991H19.4002C20.0602 2.89991 20.6252 3.13491 21.0952 3.60491C21.5652 4.07491 21.8002 4.63991 21.8002 5.29991V22.0999C21.8002 22.7599 21.5652 23.3249 21.0952 23.7949C20.6252 24.2649 20.0602 24.4999 19.4002 24.4999H2.6002Z" fill="#CDCDCD"/>
</svg>
