<svg width="25" height="21" viewBox="0 0 25 21" fill="none" xmlns="http://www.w3.org/2000/svg">
<path d="M18.7945 2.1922L18.7945 18.8076C18.7941 19.2971 18.5994 19.7664 18.2533 20.1125C17.9072 20.4586 17.4379 20.6532 16.9484 20.6537L13.2561 20.6537C12.7666 20.6532 12.2973 20.4586 11.9512 20.1125C11.6051 19.7664 11.4104 19.2971 11.4099 18.8076L11.4099 2.1922C11.4104 1.70271 11.6051 1.23342 11.9512 0.887308C12.2973 0.541192 12.7666 0.34653 13.2561 0.34604L16.9484 0.34604C17.4379 0.34653 17.9072 0.541192 18.2533 0.887307C18.5994 1.23342 18.7941 1.70271 18.7945 2.1922ZM13.2561 18.8076L16.9484 18.8076L16.9484 2.1922L13.2561 2.1922L13.2561 18.8076ZM13.2561 2.1922L13.2561 18.8076C13.2556 19.2971 13.0609 19.7663 12.7148 20.1124C12.3687 20.4586 11.8994 20.6532 11.4099 20.6537L7.71762 20.6537C7.22814 20.6532 6.75885 20.4586 6.41274 20.1124C6.06662 19.7663 5.87196 19.297 5.87147 18.8076L5.87147 2.19218C5.87196 1.7027 6.06662 1.2334 6.41273 0.887289C6.75885 0.541174 7.22814 0.346512 7.71762 0.346023L11.4099 0.346023C11.8994 0.346511 12.3687 0.541173 12.7148 0.887289C13.0609 1.2334 13.2556 1.70271 13.2561 2.1922ZM7.71762 18.8076L11.4099 18.8076L11.4099 2.1922L7.71762 2.19218L7.71762 18.8076ZM7.71762 2.19218L7.71762 18.8076C7.71713 19.297 7.52247 19.7663 7.17636 20.1124C6.83024 20.4586 6.36095 20.6532 5.87147 20.6537L2.17916 20.6537C1.68968 20.6532 1.22039 20.4586 0.874273 20.1124C0.528158 19.7663 0.333497 19.297 0.333008 18.8076L0.333007 2.19218C0.333496 1.7027 0.528158 1.2334 0.874273 0.887289C1.22039 0.541174 1.68968 0.346512 2.17916 0.346023L5.87147 0.346023C6.36095 0.346512 6.83024 0.541174 7.17636 0.887289C7.52247 1.2334 7.71713 1.7027 7.71762 2.19218ZM2.17916 18.8076L5.87147 18.8076L5.87147 2.19218L2.17916 2.19218L2.17916 18.8076Z" fill="#CDCDCD"/>
<path d="M24.333 2.1924L24.333 18.8078C24.3325 19.2973 24.1379 19.7665 23.7917 20.1127C23.4456 20.4588 22.9763 20.6534 22.4869 20.6539L18.7945 20.6539C18.3051 20.6534 17.8358 20.4588 17.4897 20.1127C17.1435 19.7665 16.9489 19.2971 16.9484 18.8076L16.9484 2.1922C16.9489 1.70271 17.1435 1.23363 17.4897 0.887511C17.8358 0.541396 18.3051 0.346736 18.7945 0.346246L22.4869 0.346246C22.9763 0.346736 23.4456 0.541396 23.7917 0.887511C24.1379 1.23363 24.3325 1.70292 24.333 2.1924ZM18.7945 18.8076L22.4869 18.8078L22.4869 2.1924L18.7945 2.1922L18.7945 18.8076Z" fill="#CDCDCD"/>
</svg>
